<svg xmlns="http://www.w3.org/2000/svg" width="17.096" height="16.41" viewBox="0 0 17.096 16.41">
    <defs>
        <style>
            .cls-1{fill:#434340}
        </style>
    </defs>
    <g id="Group_1206" transform="translate(0 -10.262)">
        <g id="Group_607" transform="translate(0 10.262)">
            <path id="Path_2880" d="M17.063 19.257a6.739 6.739 0 0 0-5.241-5.909V12.5a1.135 1.135 0 0 0-.274-2.237h-2.4A1.135 1.135 0 0 0 8.87 12.5v.851a6.7 6.7 0 0 0-3.288 1.809 6.782 6.782 0 0 0-.567.643H2.61a.334.334 0 0 0 0 .668h1.95a6.693 6.693 0 0 0-.592 1.283H.334a.334.334 0 0 0 0 .668h3.445a6.789 6.789 0 0 0-.165 1.278H2.137a.334.334 0 0 0 0 .668h1.487a6.779 6.779 0 0 0 .208 1.283H1.67a.334.334 0 0 0 0 .668h2.376a6.744 6.744 0 0 0 5.638 4.321q.331.033.662.033a6.761 6.761 0 0 0 3.681-1.088.334.334 0 1 0-.364-.56 6.077 6.077 0 1 1 1.79-1.792.334.334 0 1 0 .56.364 6.766 6.766 0 0 0 1.05-4.34zM8.676 11.4a.468.468 0 0 1 .467-.467h2.4a.467.467 0 1 1 0 .935h-2.4a.468.468 0 0 1-.467-.468zm.861 1.838v-.7h1.617v.7a6.8 6.8 0 0 0-1.616-.003z" class="cls-1" transform="translate(0 -10.262)"/>
            <path id="Path_2881" d="M436.111 425.507a.334.334 0 1 0 .236.1.336.336 0 0 0-.236-.1z" class="cls-1" transform="translate(-421.226 -411.642)"/>
            <path id="Path_2882" d="M160.054 144.611a5.18 5.18 0 1 0 5.18 5.18 5.186 5.186 0 0 0-5.18-5.18zm0 9.692a4.512 4.512 0 1 1 4.512-4.512 4.517 4.517 0 0 1-4.512 4.509z" class="cls-1" transform="translate(-149.703 -140.125)"/>
            <path id="Path_2883" d="M260.921 219.512l-1.654 1.654a1.035 1.035 0 0 0-.917 0l-.74-.74a.334.334 0 1 0-.472.472l.74.74a1.038 1.038 0 1 0 1.861 0l1.605-1.605.048-.049a.334.334 0 0 0-.472-.472zm-2.112 2.954a.37.37 0 1 1 .37-.37.37.37 0 0 1-.37.37z" class="cls-1" transform="translate(-248.458 -212.431)"/>
            <path id="Path_2884" d="M398.3 289.865h-.309a.334.334 0 1 0 0 .668h.309a.334.334 0 1 0 0-.668z" class="cls-1" transform="translate(-384.383 -280.529)"/>
            <path id="Path_2885" d="M193.728 289.621h-.309a.334.334 0 0 0 0 .668h.309a.334.334 0 1 0 0-.668z" class="cls-1" transform="translate(-186.638 -280.293)"/>
            <path id="Path_2886" d="M300.462 183.8a.334.334 0 0 0 .334-.334v-.309a.334.334 0 1 0-.668 0v.309a.334.334 0 0 0 .334.334z" class="cls-1" transform="translate(-290.107 -177.06)"/>
            <path id="Path_2887" d="M300.218 387.4a.334.334 0 0 0-.334.334v.309a.334.334 0 1 0 .668 0v-.309a.334.334 0 0 0-.334-.334z" class="cls-1" transform="translate(-289.871 -374.806)"/>
            <path id="Path_2888" d="M.334 351.445a.334.334 0 1 0 .236.57.334.334 0 0 0-.236-.57z" class="cls-1" transform="translate(0 -340.053)"/>
        </g>
    </g>
</svg>
